<?xml version="1.0" standalone="no"?>
<!DOCTYPE svg PUBLIC "-//W3C//DTD SVG 20010904//EN"
 "http://www.w3.org/TR/2001/REC-SVG-20010904/DTD/svg10.dtd">
<svg version="1.0" xmlns="http://www.w3.org/2000/svg"
 width="532.000000pt" height="299.000000pt" viewBox="0 0 532.000000 299.000000"
 preserveAspectRatio="xMidYMid meet">

<g transform="translate(0.000000,299.000000) scale(0.100000,-0.100000)"
fill="#000000" stroke="none">
<path d="M1837 2836 c-107 -44 -171 -114 -202 -220 -30 -99 -10 -217 47 -281
17 -20 29 -37 27 -39 -2 -2 -63 -33 -136 -70 -73 -37 -142 -76 -155 -86 -45
-37 9 -22 110 31 l97 51 55 -35 c62 -40 81 -57 130 -121 21 -27 56 -56 88 -72
45 -23 61 -26 109 -21 30 3 79 18 108 32 58 30 185 139 185 159 0 7 -37 30
-82 51 -219 101 -342 100 -429 -3 l-33 -40 -36 18 c-77 39 -75 44 66 110 133
63 350 153 394 163 21 5 33 -1 64 -33 49 -50 118 -74 187 -65 44 6 70 1 212
-46 89 -29 163 -53 165 -54 1 -1 -9 -22 -23 -46 -66 -120 -24 -307 88 -393 68
-52 147 -81 224 -81 46 0 77 5 85 13 9 9 13 40 12 97 -2 67 -7 95 -28 140 -28
62 -75 126 -119 164 -15 13 -38 32 -50 42 -13 11 -16 17 -6 14 9 -3 91 -21
183 -39 123 -25 173 -39 189 -54 12 -12 49 -33 82 -49 51 -24 72 -28 145 -28
69 0 93 5 129 24 70 37 171 140 171 175 0 9 -113 47 -182 61 -177 38 -301 2
-369 -104 l-16 -25 -84 13 c-144 22 -489 114 -489 131 0 4 20 24 44 44 l44 36
16 -25 c50 -76 185 -86 317 -22 77 37 199 121 199 136 0 18 -66 65 -140 100
-84 40 -180 52 -243 32 -48 -16 -105 -75 -132 -135 -14 -29 -48 -75 -82 -109
l-59 -57 -82 26 c-45 15 -82 30 -82 34 0 4 26 17 58 29 70 26 162 78 162 91 0
19 -86 92 -140 118 -46 22 -68 27 -140 27 -74 0 -93 -4 -145 -29 -32 -16 -78
-49 -102 -73 -31 -33 -61 -51 -120 -72 -43 -16 -117 -44 -164 -63 l-86 -35 50
66 c79 103 100 160 101 261 1 47 -5 102 -12 123 -13 36 -14 37 -65 37 -31 0
-75 -10 -110 -24z m68 -68 c-83 -111 -151 -268 -169 -390 -4 -27 -11 -48 -15
-48 -16 0 -61 80 -71 126 -20 90 26 232 96 293 45 40 105 70 157 80 23 4 44 6
46 5 2 -2 -18 -31 -44 -66z m92 -93 c-6 -101 -42 -171 -140 -267 -43 -43 -84
-78 -91 -78 -10 0 -10 13 0 68 7 37 20 87 28 111 27 74 106 215 149 266 l41
48 9 -39 c5 -21 7 -70 4 -109z m609 -76 c70 -29 60 -36 -49 -36 -75 1 -123 -5
-184 -21 -45 -12 -90 -22 -100 -22 -39 1 86 84 152 101 42 10 132 0 181 -22z
m99 -81 l29 -15 -55 -32 c-115 -66 -254 -95 -342 -70 -44 12 -103 61 -93 77 6
10 157 48 226 56 70 8 206 -1 235 -16z m-613 -279 c34 -11 84 -32 112 -46 l51
-27 -60 -20 c-114 -38 -405 -25 -405 18 0 22 42 68 74 82 47 20 157 17 228 -7z
m-142 -144 c57 -6 165 3 248 21 26 5 25 3 -12 -30 -119 -108 -266 -115 -350
-16 -35 42 -33 49 12 40 20 -5 66 -11 102 -15z"/>
<path d="M455 1790 c-261 -4 -295 -7 -264 -18 77 -27 74 -6 74 -451 0 -362 -2
-399 -18 -424 -9 -15 -30 -30 -45 -33 -86 -21 -30 -31 168 -32 85 -1 173 3
195 7 l40 8 -28 11 c-16 7 -32 12 -37 12 -5 0 -18 12 -27 27 -15 23 -18 56
-21 230 l-4 203 35 0 c57 0 139 -19 159 -37 10 -9 23 -33 28 -55 20 -73 30
-40 30 98 0 97 -3 135 -11 132 -7 -2 -17 -19 -23 -38 -17 -52 -53 -72 -140
-78 l-76 -5 0 218 0 217 133 -4 c117 -3 137 -6 173 -27 47 -26 79 -76 89 -136
13 -83 17 -97 25 -88 6 6 -10 227 -19 271 -1 1 -31 1 -68 0 -38 -2 -203 -5
-368 -8z"/>
<path d="M3712 1764 c-39 -31 -127 -63 -194 -71 -55 -7 -60 -16 -19 -38 52
-26 56 -56 56 -410 0 -292 -2 -323 -18 -348 -10 -16 -31 -30 -48 -34 -56 -11
-38 -20 53 -27 181 -12 387 -1 333 18 -99 37 -95 16 -95 516 0 393 -1 420 -17
420 -10 0 -33 -12 -51 -26z"/>
<path d="M4170 1755 c-48 -30 -105 -50 -204 -70 l-29 -6 35 -24 c20 -13 41
-39 47 -56 16 -45 15 -662 -1 -692 -15 -29 -36 -44 -73 -52 -64 -14 11 -24
185 -23 181 0 254 8 215 22 -56 21 -66 28 -75 52 -6 15 -10 193 -10 439 0 227
-3 420 -6 429 -9 23 -22 20 -84 -19z"/>
<path d="M2658 1638 c-38 -79 -140 -166 -231 -199 -64 -23 -68 -39 -9 -39 l50
0 4 -222 c3 -144 9 -234 17 -253 29 -70 96 -109 167 -98 55 9 133 63 161 111
28 47 19 54 -21 17 -36 -33 -62 -32 -81 5 -12 23 -15 70 -15 235 l0 205 56 0
c34 0 53 4 49 10 -3 6 -28 10 -56 10 l-49 0 0 125 c0 97 -3 125 -13 125 -7 0
-20 -15 -29 -32z"/>
<path d="M1246 1435 c-57 -30 -56 -30 -56 -5 0 24 -17 26 -47 5 -45 -32 -120
-63 -178 -75 -88 -18 -93 -23 -51 -49 49 -31 58 -71 54 -251 -3 -140 -4 -150
-27 -174 -13 -14 -33 -26 -44 -28 -11 -2 -23 -9 -25 -17 -4 -12 14 -13 109 -8
63 4 160 7 217 7 103 0 126 11 59 28 -55 14 -62 42 -62 257 0 218 8 259 58
280 33 14 52 11 80 -13 26 -23 21 -60 -12 -89 -25 -22 -28 -29 -19 -48 11 -25
47 -45 79 -45 28 0 75 26 93 52 18 26 21 96 5 131 -30 66 -149 87 -233 42z"/>
<path d="M1784 1415 c-33 -19 -95 -43 -138 -54 -43 -11 -80 -22 -83 -25 -3 -2
8 -11 24 -20 42 -21 53 -55 59 -175 7 -146 20 -196 61 -242 48 -53 110 -72
222 -67 76 3 93 7 130 31 l43 29 30 -29 c28 -27 34 -28 122 -28 73 0 98 4 121
19 l29 19 -35 16 c-53 25 -58 53 -58 324 -1 164 -4 237 -12 237 -6 0 -39 -16
-73 -35 -34 -19 -97 -43 -140 -54 -43 -11 -80 -22 -83 -25 -3 -2 9 -12 26 -20
50 -26 56 -48 56 -196 0 -143 -14 -208 -54 -244 -27 -25 -77 -23 -105 3 -43
41 -50 88 -51 336 0 196 -2 230 -15 232 -8 1 -42 -13 -76 -32z"/>
<path d="M3011 1428 c-167 -64 -228 -297 -119 -458 60 -90 155 -140 268 -140
89 0 169 29 228 84 42 38 80 102 68 113 -3 3 -23 -10 -45 -30 -93 -84 -208
-71 -293 34 -15 19 -30 48 -34 65 l-6 31 90 7 c116 9 199 29 224 53 21 22 33
80 24 117 -10 40 -66 97 -121 122 -68 32 -204 33 -284 2z m206 -26 c29 -35 45
-109 33 -154 -18 -64 -66 -98 -141 -98 l-39 0 0 90 c0 104 19 163 59 185 33
18 60 11 88 -23z"/>
<path d="M4543 1426 c-60 -28 -81 -55 -89 -117 -5 -39 -3 -49 21 -77 23 -27
33 -32 71 -32 56 0 94 33 94 80 0 26 -5 33 -30 42 -43 15 -50 52 -17 86 47 47
124 25 153 -43 8 -19 14 -59 14 -89 0 -65 -22 -92 -79 -102 -195 -31 -238 -50
-271 -120 -41 -83 -4 -176 84 -209 33 -13 67 -16 133 -14 78 4 95 8 131 32 48
31 64 33 83 11 39 -48 164 -63 241 -30 50 22 55 34 16 43 -51 13 -76 73 -88
212 -19 213 -45 272 -137 318 -51 25 -71 28 -168 31 -99 2 -115 0 -162 -22z
m246 -336 c6 -56 11 -113 11 -128 0 -92 -130 -108 -175 -22 -19 37 -19 93 0
131 14 27 126 119 145 119 4 0 12 -45 19 -100z"/>
<path d="M1180 365 l0 -145 65 0 c52 0 69 4 85 20 27 27 27 87 0 115 -18 20
-19 23 -5 35 8 7 15 27 15 45 0 49 -37 75 -106 75 l-54 0 0 -145z m114 99 c36
-35 7 -84 -50 -84 l-34 0 0 50 0 50 34 0 c19 0 42 -7 50 -16z m14 -126 c7 -7
12 -24 12 -38 0 -37 -18 -50 -67 -50 l-43 0 0 50 0 50 43 0 c24 0 48 -5 55
-12z"/>
<path d="M2827 504 c-14 -15 -6 -34 14 -34 14 0 19 5 17 17 -3 18 -20 27 -31
17z"/>
<path d="M2440 435 c0 -24 -5 -35 -15 -35 -8 0 -15 -7 -15 -15 0 -8 7 -15 15
-15 12 0 15 -15 15 -75 0 -60 3 -75 15 -75 12 0 15 15 15 75 0 60 3 75 15 75
8 0 15 7 15 15 0 8 -7 15 -15 15 -10 0 -15 11 -15 35 0 24 -5 35 -15 35 -10 0
-15 -11 -15 -35z"/>
<path d="M1634 403 c-67 -13 -92 -110 -41 -160 71 -72 194 6 158 100 -16 41
-71 69 -117 60z m71 -48 c14 -13 25 -35 25 -49 0 -28 -42 -66 -72 -66 -25 0
-68 44 -68 70 0 27 43 70 70 70 12 0 32 -11 45 -25z"/>
<path d="M3992 403 c-27 -5 -62 -57 -62 -91 0 -60 58 -108 112 -95 38 10 70
35 59 46 -6 6 -18 4 -32 -7 -31 -22 -65 -20 -89 4 -39 39 -27 50 56 50 l76 0
-7 28 c-12 49 -56 75 -113 65z m71 -45 l22 -23 -32 -3 c-18 -2 -48 -2 -65 0
l-33 3 23 23 c12 12 31 22 42 22 11 0 30 -10 43 -22z"/>
<path d="M1980 332 c0 -43 5 -75 15 -89 31 -44 111 -37 134 13 6 14 11 52 11
84 0 53 -2 60 -20 60 -18 0 -20 -7 -20 -68 0 -70 -10 -92 -41 -92 -30 0 -49
40 -49 102 0 45 -3 58 -15 58 -12 0 -15 -14 -15 -68z"/>
<path d="M2820 310 c0 -73 3 -90 15 -90 12 0 15 17 15 90 0 73 -3 90 -15 90
-12 0 -15 -17 -15 -90z"/>
<path d="M3172 393 c-19 -7 -42 -58 -42 -91 0 -63 76 -110 126 -77 13 8 26 15
29 15 3 0 5 -25 5 -55 0 -30 4 -55 9 -55 6 0 11 59 13 135 2 103 0 135 -9 135
-7 0 -13 -7 -13 -16 0 -14 -2 -14 -22 0 -22 15 -69 20 -96 9z m96 -41 c17 -22
15 -72 -5 -94 -34 -38 -103 -7 -103 47 0 36 44 78 73 70 12 -4 28 -14 35 -23z"/>
<path d="M3560 328 c0 -79 4 -89 37 -107 34 -17 62 -13 88 14 22 21 25 33 25
95 0 56 -3 70 -15 70 -12 0 -15 -14 -15 -68 0 -72 -10 -92 -45 -92 -35 0 -45
20 -45 92 0 54 -3 68 -15 68 -12 0 -15 -15 -15 -72z"/>
</g>
</svg>
